
<svg xmlns="http://www.w3.org/2000/svg" width="138.835" height="108.213" viewBox="0 0 138.835 108.213">
  <g id="组_91" data-name="组 91" transform="translate(-744.226 -734.64)">
    <g id="组_88" data-name="组 88">
      <rect id="矩形_56" data-name="矩形 56" width="134.835" height="43.786" transform="translate(746.226 797.067)" fill="none" stroke="#fff" stroke-miterlimit="10" stroke-width="4"/>
      <path id="路径_132" data-name="路径 132" d="M871.43,833.339V806.073H861.8v25.767h-9.631V806.073h-9.631v25.767h-9.631V806.073h-9.631v25.767h-9.631V806.073h-9.631v25.767h-9.631V806.073h-9.631v25.767H775.12V806.073h-9.631v25.767h-9.631V804.519" fill="none" stroke="#fff" stroke-miterlimit="10" stroke-width="4"/>
    </g>
    <g id="组_89" data-name="组 89">
      <path id="路径_133" data-name="路径 133" d="M777.881,760.177H804.2v36.89" fill="none" stroke="#fff" stroke-miterlimit="10" stroke-width="4"/>
      <path id="路径_134" data-name="路径 134" d="M785.169,767.465l-7.288-7.288,7.288-7.288" fill="none" stroke="#fff" stroke-miterlimit="10" stroke-width="4"/>
      <line id="直线_63" data-name="直线 63" x2="23.571" transform="translate(746.226 760.177)" fill="none" stroke="#fff" stroke-miterlimit="10" stroke-width="4"/>
      <line id="直线_64" data-name="直线 64" y2="47.075" transform="translate(769.764 736.64)" fill="none" stroke="#fff" stroke-miterlimit="10" stroke-width="4"/>
      <path id="路径_135" data-name="路径 135" d="M749.376,771.946h40.776a23.537,23.537,0,1,1,0-23.538H749.376" fill="none" stroke="#fff" stroke-miterlimit="10" stroke-width="4"/>
      <path id="路径_136" data-name="路径 136" d="M780.315,771.943c-2.106,7.037-6.042,11.771-10.551,11.771-6.727,0-12.181-10.538-12.181-23.537s5.454-23.537,12.181-23.537c4.524,0,8.472,4.766,10.573,11.843" fill="none" stroke="#fff" stroke-miterlimit="10" stroke-width="4"/>
    </g>
    <g id="组_90" data-name="组 90">
      <path id="路径_137" data-name="路径 137" d="M849.406,760.177H823.092v36.89" fill="none" stroke="#fff" stroke-miterlimit="10" stroke-width="4"/>
      <path id="路径_138" data-name="路径 138" d="M842.119,767.465l7.288-7.288-7.288-7.288" fill="none" stroke="#fff" stroke-miterlimit="10" stroke-width="4"/>
      <line id="直线_65" data-name="直线 65" x1="23.571" transform="translate(857.49 760.177)" fill="none" stroke="#fff" stroke-miterlimit="10" stroke-width="4"/>
      <line id="直线_66" data-name="直线 66" y2="47.075" transform="translate(857.524 736.64)" fill="none" stroke="#fff" stroke-miterlimit="10" stroke-width="4"/>
      <path id="路径_139" data-name="路径 139" d="M877.912,771.946H837.135a23.537,23.537,0,1,0,0-23.538h40.777" fill="none" stroke="#fff" stroke-miterlimit="10" stroke-width="4"/>
      <path id="路径_140" data-name="路径 140" d="M846.972,771.943c2.106,7.037,6.043,11.771,10.552,11.771,6.727,0,12.18-10.538,12.18-23.537s-5.453-23.537-12.18-23.537c-4.525,0-8.473,4.766-10.573,11.843" fill="none" stroke="#fff" stroke-miterlimit="10" stroke-width="4"/>
    </g>
  </g>
</svg>
 