<?xml version="1.0" encoding="utf-8"?>
<!-- Generator: Adobe Illustrator 25.0.0, SVG Export Plug-In . SVG Version: 6.00 Build 0)  -->
<svg version="1.1" id="图层_1" xmlns="http://www.w3.org/2000/svg" xmlns:xlink="http://www.w3.org/1999/xlink" x="0px" y="0px"
	 viewBox="0 0 98.5 79.8" style="enable-background:new 0 0 98.5 79.8;" xml:space="preserve">
<style type="text/css">
	.st0{fill:none;stroke:#FFFFFF;stroke-width:2.805;stroke-miterlimit:10;}
</style>
<g>
	<circle class="st0" cx="49.1" cy="13.9" r="12.1"/>
	<circle class="st0" cx="49.1" cy="13.9" r="12.1"/>
	<path class="st0" d="M54.6,16.4c0.4-0.8,0.6-1.6,0.6-2.6c0-3.4-2.7-6.1-6.1-6.1c-3.4,0-6.1,2.7-6.1,6.1c0,0.9,0.2,1.8,0.6,2.6"/>
	<line class="st0" x1="49.1" y1="12.8" x2="49.1" y2="18"/>
	<line class="st0" x1="49.1" y1="25.9" x2="49.1" y2="32.1"/>
	<line class="st0" x1="49.1" y1="43.9" x2="49.1" y2="61"/>
	<rect x="40.2" y="32.1" class="st0" width="17.9" height="11.8"/>
	<g>
		<line class="st0" x1="66.8" y1="65.6" x2="53.7" y2="65.6"/>
		<line class="st0" x1="44.6" y1="65.6" x2="31.5" y2="65.6"/>
	</g>
	<g>
		<g>
			<line class="st0" x1="40.2" y1="34.9" x2="24.9" y2="34.9"/>
			<line class="st0" x1="40.2" y1="41" x2="24.9" y2="41"/>
			<line class="st0" x1="24.9" y1="30.9" x2="24.9" y2="45.1"/>
			<line class="st0" x1="24.9" y1="38" x2="1.3" y2="38"/>
		</g>
		<g>
			<line class="st0" x1="73.4" y1="34.9" x2="58.1" y2="34.9"/>
			<line class="st0" x1="73.4" y1="41" x2="58.1" y2="41"/>
			<line class="st0" x1="73.4" y1="30.9" x2="73.4" y2="45.1"/>
			<line class="st0" x1="97" y1="38" x2="73.4" y2="38"/>
		</g>
	</g>
	<rect x="44.6" y="61" class="st0" width="9.1" height="9.1"/>
	<g>
		<g>
			<g>
				<path class="st0" d="M7.6,62.3H3.4c-0.4,0-0.8-0.4-0.8-0.8v-6.8c0-0.4,0.4-0.8,0.8-0.8h4.2c0.4,0,0.8,0.4,0.8,0.8v6.8
					C8.4,61.9,8,62.3,7.6,62.3z"/>
				<path class="st0" d="M25.7,62.3h-4.2c-0.4,0-0.8-0.4-0.8-0.8v-6.8c0-0.4,0.4-0.8,0.8-0.8h4.2c0.4,0,0.8,0.4,0.8,0.8v6.8
					C26.5,61.9,26.1,62.3,25.7,62.3z"/>
				<line class="st0" x1="14.5" y1="52.5" x2="14.5" y2="63.7"/>
			</g>
			<g>
				<path class="st0" d="M13.7,77.3H9.5c-0.4,0-0.8-0.4-0.8-0.8v-6.8c0-0.4,0.4-0.8,0.8-0.8h4.2c0.4,0,0.8,0.4,0.8,0.8v6.8
					C14.5,76.9,14.1,77.3,13.7,77.3z"/>
				<line class="st0" x1="20.6" y1="67.5" x2="20.6" y2="78.7"/>
				<line class="st0" x1="26.5" y1="67.5" x2="26.5" y2="78.7"/>
				<line class="st0" x1="2.6" y1="67.5" x2="2.6" y2="78.7"/>
			</g>
		</g>
		<g>
			<g>
				<path class="st0" d="M90.7,62.3h4.2c0.4,0,0.8-0.4,0.8-0.8v-6.8c0-0.4-0.4-0.8-0.8-0.8h-4.2c-0.4,0-0.8,0.4-0.8,0.8v6.8
					C89.9,61.9,90.2,62.3,90.7,62.3z"/>
				<path class="st0" d="M72.6,62.3h4.2c0.4,0,0.8-0.4,0.8-0.8v-6.8c0-0.4-0.4-0.8-0.8-0.8h-4.2c-0.4,0-0.8,0.4-0.8,0.8v6.8
					C71.8,61.9,72.2,62.3,72.6,62.3z"/>
				<line class="st0" x1="83.8" y1="52.5" x2="83.8" y2="63.7"/>
			</g>
			<g>
				<path class="st0" d="M84.6,77.3h4.2c0.4,0,0.8-0.4,0.8-0.8v-6.8c0-0.4-0.4-0.8-0.8-0.8h-4.2c-0.4,0-0.8,0.4-0.8,0.8v6.8
					C83.8,76.9,84.2,77.3,84.6,77.3z"/>
				<line class="st0" x1="77.7" y1="67.5" x2="77.7" y2="78.7"/>
				<line class="st0" x1="71.8" y1="67.5" x2="71.8" y2="78.7"/>
				<line class="st0" x1="95.7" y1="67.5" x2="95.7" y2="78.7"/>
			</g>
		</g>
	</g>
	<g>
		<g>
			<line class="st0" x1="18.8" y1="24.2" x2="18.8" y2="27"/>
			<line class="st0" x1="24.9" y1="24.2" x2="24.9" y2="27"/>
			<line class="st0" x1="30.9" y1="24.2" x2="30.9" y2="27"/>
		</g>
		<g>
			<line class="st0" x1="67.4" y1="24.2" x2="67.4" y2="27"/>
			<line class="st0" x1="73.4" y1="24.2" x2="73.4" y2="27"/>
			<line class="st0" x1="79.4" y1="24.2" x2="79.4" y2="27"/>
		</g>
	</g>
</g>
</svg>