
<svg xmlns="http://www.w3.org/2000/svg" width="186.467" height="109.285" viewBox="0 0 186.467 109.285">
  <g id="组_87" data-name="组 87" transform="translate(-412.378 -733.568)">
    <g id="组_85" data-name="组 85">
      <path id="路径_124" data-name="路径 124" d="M470.675,796.029v-4.2H447.389l-15.027,16.922v8.394s1.49,6.5,7.988,6.5h77.542" fill="none" stroke="#fff" stroke-miterlimit="10" stroke-width="4"/>
      <path id="路径_125" data-name="路径 125" d="M484.619,808.754h-14.35v-6.363h-6.5v-6.634" fill="none" stroke="#fff" stroke-miterlimit="10" stroke-width="4"/>
      <line id="直线_52" data-name="直线 52" y1="8.529" transform="translate(463.77 778.565)" fill="none" stroke="#fff" stroke-miterlimit="10" stroke-width="4"/>
      <line id="直线_53" data-name="直线 53" x2="25.857" transform="translate(490.169 808.754)" fill="none" stroke="#fff" stroke-miterlimit="10" stroke-width="4"/>
      <line id="直线_54" data-name="直线 54" x2="25.857" transform="translate(490.169 803.61)" fill="none" stroke="#fff" stroke-miterlimit="10" stroke-width="4"/>
      <line id="直线_55" data-name="直线 55" x2="25.857" transform="translate(490.169 798.466)" fill="none" stroke="#fff" stroke-miterlimit="10" stroke-width="4"/>
      <line id="直线_56" data-name="直线 56" x2="25.857" transform="translate(490.169 793.321)" fill="none" stroke="#fff" stroke-miterlimit="10" stroke-width="4"/>
      <line id="直线_57" data-name="直线 57" x2="25.857" transform="translate(521.307 808.754)" fill="none" stroke="#fff" stroke-miterlimit="10" stroke-width="4"/>
      <line id="直线_58" data-name="直线 58" x2="25.857" transform="translate(521.307 803.61)" fill="none" stroke="#fff" stroke-miterlimit="10" stroke-width="4"/>
      <line id="直线_59" data-name="直线 59" x2="25.857" transform="translate(521.307 798.466)" fill="none" stroke="#fff" stroke-miterlimit="10" stroke-width="4"/>
      <line id="直线_60" data-name="直线 60" x2="25.857" transform="translate(521.307 793.321)" fill="none" stroke="#fff" stroke-miterlimit="10" stroke-width="4"/>
    </g>
    <line id="直线_61" data-name="直线 61" x2="74.112" transform="translate(483.232 762.68)" fill="none" stroke="#fff" stroke-miterlimit="10" stroke-width="4"/>
    <rect id="矩形_54" data-name="矩形 54" width="27.896" height="12.343" transform="translate(557.343 750.338)" fill="none" stroke="#fff" stroke-miterlimit="10" stroke-width="4"/>
    <path id="路径_126" data-name="路径 126" d="M557.343,753.1v55.65h22.718l-7.987,14.892H516.027" fill="none" stroke="#fff" stroke-miterlimit="10" stroke-width="4"/>
    <line id="直线_62" data-name="直线 62" y2="46.074" transform="translate(571.291 762.68)" fill="none" stroke="#fff" stroke-miterlimit="10" stroke-width="4"/>
    <path id="路径_127" data-name="路径 127" d="M498.483,762.68l58.86-26.041v13.7" fill="none" stroke="#fff" stroke-miterlimit="10" stroke-width="4"/>
    <rect id="矩形_55" data-name="矩形 55" width="25.857" height="8.18" transform="translate(490.169 772.75)" fill="none" stroke="#fff" stroke-miterlimit="10" stroke-width="4"/>
    <g id="组_86" data-name="组 86">
      <path id="路径_128" data-name="路径 128" d="M412.38,840.853a49,49,0,0,0,23.308-5.818A49,49,0,0,0,459,840.853" fill="none" stroke="#fff" stroke-miterlimit="10" stroke-width="4" fill-rule="evenodd"/>
      <path id="路径_129" data-name="路径 129" d="M459,840.853a49,49,0,0,0,23.308-5.818,49,49,0,0,0,23.308,5.818" fill="none" stroke="#fff" stroke-miterlimit="10" stroke-width="4" fill-rule="evenodd"/>
      <path id="路径_130" data-name="路径 130" d="M505.612,840.853a49,49,0,0,0,23.308-5.818,49,49,0,0,0,23.308,5.818" fill="none" stroke="#fff" stroke-miterlimit="10" stroke-width="4" fill-rule="evenodd"/>
      <path id="路径_131" data-name="路径 131" d="M552.228,840.853a49,49,0,0,0,23.308-5.818,49,49,0,0,0,23.308,5.818" fill="none" stroke="#fff" stroke-miterlimit="10" stroke-width="4" fill-rule="evenodd"/>
    </g>
  </g>
</svg>
